<svg id="Layer_1" data-name="Layer 1" xmlns="http://www.w3.org/2000/svg" viewBox="0 0 41.5 60.5"><defs><style>.cls-1{fill:none;stroke:#1e1e1e;stroke-width:3.5px;}</style></defs><path class="cls-1" d="M21,30.5a9.49,9.49,0,1,1,2.78,6.72A9.51,9.51,0,0,1,21,30.5Z" transform="translate(-0.25 -0.25)"/><path class="cls-1" d="M2,49.5A9.49,9.49,0,0,1,11.5,40H21v9.5a9.5,9.5,0,1,1-19,0Z" transform="translate(-0.25 -0.25)"/><path class="cls-1" d="M21,2V21h9.5a9.5,9.5,0,1,0,0-19Z" transform="translate(-0.25 -0.25)"/><path class="cls-1" d="M2,11.5A9.49,9.49,0,0,0,11.5,21H21V2H11.5A9.49,9.49,0,0,0,2,11.5Z" transform="translate(-0.25 -0.25)"/><path class="cls-1" d="M2,30.5A9.49,9.49,0,0,0,11.5,40H21V21H11.5A9.49,9.49,0,0,0,2,30.5Z" transform="translate(-0.25 -0.25)"/></svg>